<svg width="32" height="32" viewBox="0 0 32 32" xmlns="http://www.w3.org/2000/svg">
  <!-- Background circle -->
  <circle cx="16" cy="16" r="15" fill="#3b82f6"/>

  <!-- Portfolio segments (simplified) -->
  <g transform="translate(16, 16)">
    <!-- Main segments in a simplified pie chart -->
    <path d="M 0,-10 A 10,10 0 0,1 7,-7 L 0,0 Z" fill="#10b981" opacity="0.9"/>
    <path d="M 7,-7 A 10,10 0 0,1 10,0 L 0,0 Z" fill="#f59e0b" opacity="0.9"/>
    <path d="M 10,0 A 10,10 0 0,1 0,10 L 0,0 Z" fill="#8b5cf6" opacity="0.9"/>
    <path d="M 0,10 A 10,10 0 0,1 -10,0 L 0,0 Z" fill="#3b82f6" opacity="0.9"/>
    <path d="M -10,0 A 10,10 0 0,1 0,-10 L 0,0 Z" fill="#ef4444" opacity="0.9"/>

    <!-- Inner circle -->
    <circle cx="0" cy="0" r="6" fill="#f8fafc"/>

    <!-- Simplified Ethereum diamond -->
    <path d="M 0,-4 L -3,-1 L 0,1 L 3,-1 Z" fill="#1e293b" opacity="0.9"/>
    <path d="M 0,1 L -3,-1 L 0,4 Z" fill="#1e293b" opacity="0.6"/>
    <path d="M 0,1 L 3,-1 L 0,4 Z" fill="#1e293b" opacity="0.8"/>
  </g>
</svg>
